# xmcd CD database file
#
# Track frame offsets:
#	150
#	35081
#	56808
#	79595
#	85588
#	119518
#	150582
#	179740
#	200366
#	242734
#
# Disc length: 3627 seconds
#
# Revision: 0
# Processed by: cddbd v1.5.1PL2 Copyright (c) Steve Scherf et al.
# Submitted via: CDex 1.51
#
DISCID=820e290a
DTITLE=ちょー美女と野獣 - ドラマCD
DYEAR=1999
DGENRE=Anime
TTITLE0=獣の館のくちづけ！？
TTITLE1=元婚約者と謎の学者、出現！
TTITLE2=アラン王子、獣になる
TTITLE3=リブロの深き陰謀
TTITLE4=ダイヤモンド姫の初恋
TTITLE5=スマートの魔法とダイヤの怒り
TTITLE6=ジオラルド、囚われの身に！
TTITLE7=タロットワークの呪文
TTITLE8=キスは何度でも
TTITLE9=リブロ・ゼロネームの戴冠式
EXTD=YEAR: 1999
EXTT0=
EXTT1=
EXTT2=
EXTT3=
EXTT4=
EXTT5=
EXTT6=
EXTT7=
EXTT8=
EXTT9=
PLAYORDER=
